<mxfile host="app.diagrams.net" modified="2024-06-21T02:16:03.024Z" agent="Mozilla/5.0 (Windows NT 10.0; Win64; x64) AppleWebKit/537.36 (KHTML, like Gecko) Chrome/126.0.0.0 Safari/537.36" version="24.5.5" etag="Z5GO4iKy6vWOWWzk9m9f" type="github">
  <diagram name="페이지-1" id="bVy0OlOf1xfqg2ewHzWS">
    <mxGraphModel>
      <root>
        <mxCell id="0" />
        <mxCell id="1" parent="0" />
      </root>
    </mxGraphModel>
  </diagram>
</mxfile>
